  0
SECTION
  2
HEADER
  9
$ACADVER
  1
AC1021
  9
$ACADMAINTVER
 70
    25
  9
$DWGCODEPAGE
  3
ANSI_1251
  9
$INSBASE
 10
0.0
 20
0.0
 30
0.0
  9
$EXTMIN
 10
-1.35595
 20
-1.7
 30
0.0
  9
$EXTMAX
 10
2.95516
 20
0.00002
 30
0.0
  9
$LIMMIN
 10
0.0
 20
0.0
  9
$LIMMAX
 10
12.0
 20
9.0
  9
$ORTHOMODE
 70
     0
  9
$REGENMODE
 70
     1
  9
$FILLMODE
 70
     1
  9
$QTEXTMODE
 70
     0
  9
$MIRRTEXT
 70
     1
  9
$LTSCALE
 40
1.0
  9
$ATTMODE
 70
     1
  9
$TEXTSIZE
 40
0.2
  9
$TRACEWID
 40
0.05
  9
$TEXTSTYLE
  7
Standard
  9
$CLAYER
  8
0
  9
$CELTYPE
  6
ByLayer
  9
$CECOLOR
 62
   256
  9
$CELTSCALE
 40
1.0
  9
$DISPSILH
 70
     0
  9
$DIMSCALE
 40
1.0
  9
$DIMASZ
 40
0.18
  9
$DIMEXO
 40
0.0625
  9
$DIMDLI
 40
0.38
  9
$DIMRND
 40
0.0
  9
$DIMDLE
 40
0.0
  9
$DIMEXE
 40
0.18
  9
$DIMTP
 40
0.0
  9
$DIMTM
 40
0.0
  9
$DIMTXT
 40
0.18
  9
$DIMCEN
 40
0.09
  9
$DIMTSZ
 40
0.0
  9
$DIMTOL
 70
     0
  9
$DIMLIM
 70
     0
  9
$DIMTIH
 70
     1
  9
$DIMTOH
 70
     1
  9
$DIMSE1
 70
     0
  9
$DIMSE2
 70
     0
  9
$DIMTAD
 70
     0
  9
$DIMZIN
 70
     0
  9
$DIMBLK
  1

  9
$DIMASO
 70
     1
  9
$DIMSHO
 70
     1
  9
$DIMPOST
  1

  9
$DIMAPOST
  1

  9
$DIMALT
 70
     0
  9
$DIMALTD
 70
     2
  9
$DIMALTF
 40
25.4
  9
$DIMLFAC
 40
1.0
  9
$DIMTOFL
 70
     0
  9
$DIMTVP
 40
0.0
  9
$DIMTIX
 70
     0
  9
$DIMSOXD
 70
     0
  9
$DIMSAH
 70
     0
  9
$DIMBLK1
  1

  9
$DIMBLK2
  1

  9
$DIMSTYLE
  2
Standard
  9
$DIMCLRD
 70
     0
  9
$DIMCLRE
 70
     0
  9
$DIMCLRT
 70
     0
  9
$DIMTFAC
 40
1.0
  9
$DIMGAP
 40
0.09
  9
$DIMJUST
 70
     0
  9
$DIMSD1
 70
     0
  9
$DIMSD2
 70
     0
  9
$DIMTOLJ
 70
     1
  9
$DIMTZIN
 70
     0
  9
$DIMALTZ
 70
     0
  9
$DIMALTTZ
 70
     0
  9
$DIMUPT
 70
     0
  9
$DIMDEC
 70
     4
  9
$DIMTDEC
 70
     4
  9
$DIMALTU
 70
     2
  9
$DIMALTTD
 70
     2
  9
$DIMTXSTY
  7
Standard
  9
$DIMAUNIT
 70
     0
  9
$DIMADEC
 70
     0
  9
$DIMALTRND
 40
0.0
  9
$DIMAZIN
 70
     0
  9
$DIMDSEP
 70
    46
  9
$DIMATFIT
 70
     3
  9
$DIMFRAC
 70
     0
  9
$DIMLDRBLK
  1

  9
$DIMLUNIT
 70
     2
  9
$DIMLWD
 70
    -2
  9
$DIMLWE
 70
    -2
  9
$DIMTMOVE
 70
     0
  9
$DIMFXL
 40
1.0
  9
$DIMFXLON
 70
     0
  9
$DIMJOGANG
 40
0.7853981633974483
  9
$DIMTFILL
 70
     0
  9
$DIMTFILLCLR
 70
     0
  9
$DIMARCSYM
 70
     0
  9
$DIMLTYPE
  6

  9
$DIMLTEX1
  6

  9
$DIMLTEX2
  6

  9
$LUNITS
 70
     2
  9
$LUPREC
 70
     4
  9
$SKETCHINC
 40
0.1
  9
$FILLETRAD
 40
0.5
  9
$AUNITS
 70
     0
  9
$AUPREC
 70
     0
  9
$MENU
  1
.
  9
$ELEVATION
 40
0.0
  9
$PELEVATION
 40
0.0
  9
$THICKNESS
 40
0.0
  9
$LIMCHECK
 70
     0
  9
$CHAMFERA
 40
0.5
  9
$CHAMFERB
 40
0.5
  9
$CHAMFERC
 40
1.0
  9
$CHAMFERD
 40
0.0
  9
$SKPOLY
 70
     0
  9
$TDCREATE
 40
2456855.954207454
  9
$TDUCREATE
 40
2456855.787540787
  9
$TDUPDATE
 40
2456855.954207465
  9
$TDUUPDATE
 40
2456855.787540799
  9
$TDINDWG
 40
0.0000000116
  9
$TDUSRTIMER
 40
0.0000000116
  9
$USRTIMER
 70
     1
  9
$ANGBASE
 50
0.0
  9
$ANGDIR
 70
     0
  9
$PDMODE
 70
     0
  9
$PDSIZE
 40
0.0
  9
$PLINEWID
 40
0.0
  9
$SPLFRAME
 70
     0
  9
$SPLINETYPE
 70
     6
  9
$SPLINESEGS
 70
     8
  9
$HANDSEED
  5
6C
  9
$SURFTAB1
 70
     6
  9
$SURFTAB2
 70
     6
  9
$SURFTYPE
 70
     6
  9
$SURFU
 70
     6
  9
$SURFV
 70
     6
  9
$UCSBASE
  2

  9
$UCSNAME
  2

  9
$UCSORG
 10
0.0
 20
0.0
 30
0.0
  9
$UCSXDIR
 10
1.0
 20
0.0
 30
0.0
  9
$UCSYDIR
 10
0.0
 20
1.0
 30
0.0
  9
$UCSORTHOREF
  2

  9
$UCSORTHOVIEW
 70
     0
  9
$UCSORGTOP
 10
0.0
 20
0.0
 30
0.0
  9
$UCSORGBOTTOM
 10
0.0
 20
0.0
 30
0.0
  9
$UCSORGLEFT
 10
0.0
 20
0.0
 30
0.0
  9
$UCSORGRIGHT
 10
0.0
 20
0.0
 30
0.0
  9
$UCSORGFRONT
 10
0.0
 20
0.0
 30
0.0
  9
$UCSORGBACK
 10
0.0
 20
0.0
 30
0.0
  9
$PUCSBASE
  2

  9
$PUCSNAME
  2

  9
$PUCSORG
 10
0.0
 20
0.0
 30
0.0
  9
$PUCSXDIR
 10
1.0
 20
0.0
 30
0.0
  9
$PUCSYDIR
 10
0.0
 20
1.0
 30
0.0
  9
$PUCSORTHOREF
  2

  9
$PUCSORTHOVIEW
 70
     0
  9
$PUCSORGTOP
 10
0.0
 20
0.0
 30
0.0
  9
$PUCSORGBOTTOM
 10
0.0
 20
0.0
 30
0.0
  9
$PUCSORGLEFT
 10
0.0
 20
0.0
 30
0.0
  9
$PUCSORGRIGHT
 10
0.0
 20
0.0
 30
0.0
  9
$PUCSORGFRONT
 10
0.0
 20
0.0
 30
0.0
  9
$PUCSORGBACK
 10
0.0
 20
0.0
 30
0.0
  9
$USERI1
 70
     0
  9
$USERI2
 70
     0
  9
$USERI3
 70
     0
  9
$USERI4
 70
     0
  9
$USERI5
 70
     0
  9
$USERR1
 40
0.0
  9
$USERR2
 40
0.0
  9
$USERR3
 40
0.0
  9
$USERR4
 40
0.0
  9
$USERR5
 40
0.0
  9
$WORLDVIEW
 70
     1
  9
$SHADEDGE
 70
     3
  9
$SHADEDIF
 70
    70
  9
$TILEMODE
 70
     1
  9
$MAXACTVP
 70
    64
  9
$PINSBASE
 10
0.0
 20
0.0
 30
0.0
  9
$PLIMCHECK
 70
     0
  9
$PEXTMIN
 10
1.000000000000000E+20
 20
1.000000000000000E+20
 30
1.000000000000000E+20
  9
$PEXTMAX
 10
-1.000000000000000E+20
 20
-1.000000000000000E+20
 30
-1.000000000000000E+20
  9
$PLIMMIN
 10
0.0
 20
0.0
  9
$PLIMMAX
 10
12.0
 20
9.0
  9
$UNITMODE
 70
     0
  9
$VISRETAIN
 70
     1
  9
$PLINEGEN
 70
     0
  9
$PSLTSCALE
 70
     1
  9
$TREEDEPTH
 70
  3020
  9
$CMLSTYLE
  2
Standard
  9
$CMLJUST
 70
     0
  9
$CMLSCALE
 40
1.0
  9
$PROXYGRAPHICS
 70
     1
  9
$MEASUREMENT
 70
     0
  9
$CELWEIGHT
370
    -1
  9
$ENDCAPS
280
     0
  9
$JOINSTYLE
280
     0
  9
$LWDISPLAY
290
     0
  9
$INSUNITS
 70
     5
  9
$HYPERLINKBASE
  1

  9
$STYLESHEET
  1

  9
$XEDIT
290
     1
  9
$CEPSNTYPE
380
     0
  9
$PSTYLEMODE
290
     1
  9
$FINGERPRINTGUID
  2
{39224818-F51B-4EEB-AAC3-EBB62AF96EAC}
  9
$VERSIONGUID
  2
{FAEB1C32-E019-11D5-929B-00C0DF256EC4}
  9
$EXTNAMES
290
     1
  9
$PSVPSCALE
 40
0.0
  9
$OLESTARTUP
290
     0
  9
$SORTENTS
280
   127
  9
$INDEXCTL
280
     0
  9
$HIDETEXT
280
     1
  9
$XCLIPFRAME
290
     0
  9
$HALOGAP
280
     0
  9
$OBSCOLOR
 70
   257
  9
$OBSLTYPE
280
     0
  9
$INTERSECTIONDISPLAY
280
     0
  9
$INTERSECTIONCOLOR
 70
   257
  9
$DIMASSOC
280
     2
  9
$PROJECTNAME
  1

  9
$CAMERADISPLAY
290
     0
  9
$LENSLENGTH
 40
50.0
  9
$CAMERAHEIGHT
 40
0.0
  9
$STEPSPERSEC
 40
2.0
  9
$STEPSIZE
 40
6.0
  9
$3DDWFPREC
 40
2.0
  9
$PSOLWIDTH
 40
0.25
  9
$PSOLHEIGHT
 40
4.0
  9
$LOFTANG1
 40
1.570796326794897
  9
$LOFTANG2
 40
1.570796326794897
  9
$LOFTMAG1
 40
0.0
  9
$LOFTMAG2
 40
0.0
  9
$LOFTPARAM
 70
     7
  9
$LOFTNORMALS
280
     1
  9
$LATITUDE
 40
37.795
  9
$LONGITUDE
 40
-122.394
  9
$NORTHDIRECTION
 40
0.0
  9
$TIMEZONE
 70
 -8000
  9
$LIGHTGLYPHDISPLAY
280
     1
  9
$TILEMODELIGHTSYNCH
280
     1
  9
$SOLIDHIST
280
     1
  9
$SHOWHIST
280
     1
  9
$DWFFRAME
280
     2
  9
$DGNFRAME
280
     2
  9
$REALWORLDSCALE
290
     1
  9
$INTERFERECOLOR
 62
   256
  9
$CSHADOW
280
     0
  9
$SHADOWPLANELOCATION
 40
0.0
  0
ENDSEC
  0
SECTION
  2
CLASSES
  0
CLASS
  1
ACDBDICTIONARYWDFLT
  2
AcDbDictionaryWithDefault
  3
ObjectDBX Classes
 90
        0
 91
        3
280
     0
281
     0
  0
CLASS
  1
VISUALSTYLE
  2
AcDbVisualStyle
  3
ObjectDBX Classes
 90
     4095
 91
        3
280
     0
281
     0
  0
CLASS
  1
SCALE
  2
AcDbScale
  3
ObjectDBX Classes
 90
     1153
 91
        3
280
     0
281
     0
  0
ENDSEC
  0
SECTION
  2
TABLES
  0
TABLE
  2
VPORT
  5
8
330
0
100
AcDbSymbolTable
 70
     1
  0
VPORT
  5
29
330
8
100
AcDbSymbolTableRecord
100
AcDbViewportTableRecord
  2
*Active
 70
     0
 10
0.0
 20
0.0
 11
1.0
 21
1.0
 12
10.42990654205607
 22
4.5
 13
0.0
 23
0.0
 14
0.5
 24
0.5
 15
0.5
 25
0.5
 16
0.0
 26
0.0
 36
1.0
 17
0.0
 27
0.0
 37
0.0
 40
9.0
 41
1.972972972850329
 42
50.0
 43
0.0
 44
0.0
 50
0.0
 51
0.0
 71
     0
 72
   100
 73
     1
 74
     3
 75
     0
 76
     0
 77
     0
 78
     0
281
     0
 65
     1
110
0.0
120
0.0
130
0.0
111
1.0
121
0.0
131
0.0
112
0.0
122
1.0
132
0.0
 79
     0
146
0.0
 60
     3
 61
     5
292
     1
282
     1
141
0.0
142
0.0
 63
   256
  0
ENDTAB
  0
TABLE
  2
LTYPE
  5
5
330
0
100
AcDbSymbolTable
 70
     1
  0
LTYPE
  5
14
330
5
100
AcDbSymbolTableRecord
100
AcDbLinetypeTableRecord
  2
ByBlock
 70
     0
  3

 72
    65
 73
     0
 40
0.0
  0
LTYPE
  5
15
330
5
100
AcDbSymbolTableRecord
100
AcDbLinetypeTableRecord
  2
ByLayer
 70
     0
  3

 72
    65
 73
     0
 40
0.0
  0
LTYPE
  5
16
330
5
100
AcDbSymbolTableRecord
100
AcDbLinetypeTableRecord
  2
Continuous
 70
     0
  3
Solid line
 72
    65
 73
     0
 40
0.0
  0
ENDTAB
  0
TABLE
  2
LAYER
  5
2
330
0
100
AcDbSymbolTable
 70
     2
  0
LAYER
  5
10
330
2
100
AcDbSymbolTableRecord
100
AcDbLayerTableRecord
  2
0
 70
     0
 62
     7
  6
Continuous
370
    -3
390
F
347
0
  0
LAYER
  5
5E
330
2
100
AcDbSymbolTableRecord
100
AcDbLayerTableRecord
  2
layer 1
 70
     0
 62
     7
  6
Continuous
370
    -3
390
F
347
0
  0
ENDTAB
  0
TABLE
  2
STYLE
  5
3
330
0
100
AcDbSymbolTable
 70
     1
  0
STYLE
  5
11
330
3
100
AcDbSymbolTableRecord
100
AcDbTextStyleTableRecord
  2
Standard
 70
     0
 40
0.0
 41
1.0
 50
0.0
 71
     0
 42
0.2
  3
txt
  4

  0
ENDTAB
  0
TABLE
  2
VIEW
  5
6
330
0
100
AcDbSymbolTable
 70
     0
  0
ENDTAB
  0
TABLE
  2
UCS
  5
7
330
0
100
AcDbSymbolTable
 70
     0
  0
ENDTAB
  0
TABLE
  2
APPID
  5
9
330
0
100
AcDbSymbolTable
 70
     2
  0
APPID
  5
12
330
9
100
AcDbSymbolTableRecord
100
AcDbRegAppTableRecord
  2
ACAD
 70
     0
  0
APPID
  5
5D
330
9
100
AcDbSymbolTableRecord
100
AcDbRegAppTableRecord
  2
ODA
 70
     0
  0
ENDTAB
  0
TABLE
  2
DIMSTYLE
  5
A
330
0
100
AcDbSymbolTable
 70
     1
100
AcDbDimStyleTable
  0
DIMSTYLE
105
27
330
A
100
AcDbSymbolTableRecord
100
AcDbDimStyleTableRecord
  2
Standard
 70
     0
340
11
  0
ENDTAB
  0
TABLE
  2
BLOCK_RECORD
  5
1
330
0
100
AcDbSymbolTable
 70
     1
  0
BLOCK_RECORD
  5
1F
330
1
100
AcDbSymbolTableRecord
100
AcDbBlockTableRecord
  2
*Model_Space
340
22
 70
     0
280
     1
281
     0
  0
BLOCK_RECORD
  5
1B
330
1
100
AcDbSymbolTableRecord
100
AcDbBlockTableRecord
  2
*Paper_Space
340
1E
 70
     0
280
     1
281
     0
  0
BLOCK_RECORD
  5
23
330
1
100
AcDbSymbolTableRecord
100
AcDbBlockTableRecord
  2
*Paper_Space0
340
26
 70
     0
280
     1
281
     0
  0
ENDTAB
  0
ENDSEC
  0
SECTION
  2
BLOCKS
  0
BLOCK
  5
20
330
1F
100
AcDbEntity
  8
0
100
AcDbBlockBegin
  2
*Model_Space
 70
     0
 10
0.0
 20
0.0
 30
0.0
  3
*Model_Space
  1

  0
ENDBLK
  5
21
330
1F
100
AcDbEntity
  8
0
100
AcDbBlockEnd
  0
BLOCK
  5
1C
330
1B
100
AcDbEntity
 67
     1
  8
0
100
AcDbBlockBegin
  2
*Paper_Space
 70
     0
 10
0.0
 20
0.0
 30
0.0
  3
*Paper_Space
  1

  0
ENDBLK
  5
1D
330
1B
100
AcDbEntity
 67
     1
  8
0
100
AcDbBlockEnd
  0
BLOCK
  5
24
330
23
100
AcDbEntity
  8
0
100
AcDbBlockBegin
  2
*Paper_Space0
 70
     0
 10
0.0
 20
0.0
 30
0.0
  3
*Paper_Space0
  1

  0
ENDBLK
  5
25
330
23
100
AcDbEntity
  8
0
100
AcDbBlockEnd
  0
ENDSEC
  0
SECTION
  2
ENTITIES
  0
SPLINE
  5
5F
330
1F
100
AcDbEntity
  8
layer 1
100
AcDbSpline
210
0.0
220
0.0
230
1.0
 70
    11
 71
     3
 72
    36
 73
    32
 74
     0
 42
0.0000000001
 43
0.0000000001
 40
0.0
 40
0.0
 40
0.0
 40
0.0
 40
0.125
 40
0.125
 40
0.125
 40
0.125
 40
0.25
 40
0.25
 40
0.25
 40
0.25
 40
0.375
 40
0.375
 40
0.375
 40
0.375
 40
0.5
 40
0.5
 40
0.5
 40
0.5
 40
0.625
 40
0.625
 40
0.625
 40
0.625
 40
0.75
 40
0.75
 40
0.75
 40
0.75
 40
0.875
 40
0.875
 40
0.875
 40
0.875
 40
1.0
 40
1.0
 40
1.0
 40
1.0
 10
2.84999
 20
-1.63
 30
0.0
 10
2.84999
 20
-1.63
 30
0.0
 10
2.86007
 20
-1.56821
 30
0.0
 10
2.86007
 20
-1.56821
 30
0.0
 10
2.86007
 20
-1.56821
 30
0.0
 10
2.86007
 20
-1.56821
 30
0.0
 10
1.01
 20
-1.57
 30
0.0
 10
1.01
 20
-1.57
 30
0.0
 10
1.01
 20
-1.57
 30
0.0
 10
1.01
 20
-1.57
 30
0.0
 10
1.01
 20
-1.49999
 30
0.0
 10
1.01
 20
-1.49999
 30
0.0
 10
1.01
 20
-1.49999
 30
0.0
 10
1.01
 20
-1.49999
 30
0.0
 10
0.81
 20
-1.49999
 30
0.0
 10
0.81
 20
-1.49999
 30
0.0
 10
0.81
 20
-1.49999
 30
0.0
 10
0.81
 20
-1.49999
 30
0.0
 10
0.81
 20
-1.7
 30
0.0
 10
0.81
 20
-1.7
 30
0.0
 10
0.81
 20
-1.7
 30
0.0
 10
0.81
 20
-1.7
 30
0.0
 10
1.01
 20
-1.69999
 30
0.0
 10
1.01
 20
-1.69999
 30
0.0
 10
1.01
 20
-1.69999
 30
0.0
 10
1.01
 20
-1.69999
 30
0.0
 10
1.01001
 20
-1.63
 30
0.0
 10
1.01001
 20
-1.63
 30
0.0
 10
1.01001
 20
-1.63
 30
0.0
 10
1.01001
 20
-1.63
 30
0.0
 10
2.84999
 20
-1.63
 30
0.0
 10
2.84999
 20
-1.63
 30
0.0
  0
SPLINE
  5
60
330
1F
100
AcDbEntity
  8
layer 1
100
AcDbSpline
210
0.0
220
0.0
230
1.0
 70
    11
 71
     3
 72
    52
 73
    48
 74
     0
 42
0.0000000001
 43
0.0000000001
 40
0.0
 40
0.0
 40
0.0
 40
0.0
 40
0.0833333333333333
 40
0.0833333333333333
 40
0.0833333333333333
 40
0.0833333333333333
 40
0.1666666666666667
 40
0.1666666666666667
 40
0.1666666666666667
 40
0.1666666666666667
 40
0.25
 40
0.25
 40
0.25
 40
0.25
 40
0.3333333333333333
 40
0.3333333333333333
 40
0.3333333333333333
 40
0.3333333333333333
 40
0.4166666666666666
 40
0.4166666666666666
 40
0.4166666666666666
 40
0.4166666666666666
 40
0.4999999999999999
 40
0.4999999999999999
 40
0.4999999999999999
 40
0.4999999999999999
 40
0.5833333333333333
 40
0.5833333333333333
 40
0.5833333333333333
 40
0.5833333333333333
 40
0.6666666666666666
 40
0.6666666666666666
 40
0.6666666666666666
 40
0.6666666666666666
 40
0.75
 40
0.75
 40
0.75
 40
0.75
 40
0.8333333333333334
 40
0.8333333333333334
 40
0.8333333333333334
 40
0.8333333333333334
 40
0.9166666666666667
 40
0.9166666666666667
 40
0.9166666666666667
 40
0.9166666666666667
 40
1.0
 40
1.0
 40
1.0
 40
1.0
 10
0.76999
 20
-1.53999
 30
0.0
 10
0.76999
 20
-1.53999
 30
0.0
 10
0.70282
 20
-1.54086
 30
0.0
 10
0.70282
 20
-1.54086
 30
0.0
 10
0.70282
 20
-1.54086
 30
0.0
 10
0.70282
 20
-1.54086
 30
0.0
 10
0.70264
 20
-1.50068
 30
0.0
 10
0.70264
 20
-1.50068
 30
0.0
 10
0.70264
 20
-1.50068
 30
0.0
 10
0.70264
 20
-1.50068
 30
0.0
 10
0.5
 20
-1.5
 30
0.0
 10
0.5
 20
-1.5
 30
0.0
 10
0.5
 20
-1.5
 30
0.0
 10
0.5
 20
-1.5
 30
0.0
 10
0.5
 20
-1.56999
 30
0.0
 10
0.5
 20
-1.56999
 30
0.0
 10
0.5
 20
-1.56999
 30
0.0
 10
0.5
 20
-1.56999
 30
0.0
 10
-1.32
 20
-1.56999
 30
0.0
 10
-1.32
 20
-1.56999
 30
0.0
 10
-1.32
 20
-1.56999
 30
0.0
 10
-1.32
 20
-1.56999
 30
0.0
 10
-1.33999
 20
-1.64
 30
0.0
 10
-1.33999
 20
-1.64
 30
0.0
 10
-1.33999
 20
-1.64
 30
0.0
 10
-1.33999
 20
-1.64
 30
0.0
 10
0.49999
 20
-1.63999
 30
0.0
 10
0.49999
 20
-1.63999
 30
0.0
 10
0.49999
 20
-1.63999
 30
0.0
 10
0.49999
 20
-1.63999
 30
0.0
 10
0.5
 20
-1.7
 30
0.0
 10
0.5
 20
-1.7
 30
0.0
 10
0.5
 20
-1.7
 30
0.0
 10
0.5
 20
-1.7
 30
0.0
 10
0.7
 20
-1.69999
 30
0.0
 10
0.7
 20
-1.69999
 30
0.0
 10
0.7
 20
-1.69999
 30
0.0
 10
0.7
 20
-1.69999
 30
0.0
 10
0.7
 20
-1.65999
 30
0.0
 10
0.7
 20
-1.65999
 30
0.0
 10
0.7
 20
-1.65999
 30
0.0
 10
0.7
 20
-1.65999
 30
0.0
 10
0.77
 20
-1.66
 30
0.0
 10
0.77
 20
-1.66
 30
0.0
 10
0.77
 20
-1.66
 30
0.0
 10
0.77
 20
-1.66
 30
0.0
 10
0.76999
 20
-1.53999
 30
0.0
 10
0.76999
 20
-1.53999
 30
0.0
  0
SPLINE
  5
61
330
1F
100
AcDbEntity
  8
layer 1
100
AcDbSpline
210
0.0
220
0.0
230
1.0
 70
    11
 71
     3
 72
    20
 73
    16
 74
     0
 42
0.0000000001
 43
0.0000000001
 40
0.0
 40
0.0
 40
0.0
 40
0.0
 40
0.25
 40
0.25
 40
0.25
 40
0.25
 40
0.5
 40
0.5
 40
0.5
 40
0.5
 40
0.75
 40
0.75
 40
0.75
 40
0.75
 40
1.0
 40
1.0
 40
1.0
 40
1.0
 10
0.7
 20
-1.57
 30
0.0
 10
0.7
 20
-1.57
 30
0.0
 10
0.74
 20
-1.56999
 30
0.0
 10
0.74
 20
-1.56999
 30
0.0
 10
0.74
 20
-1.56999
 30
0.0
 10
0.74
 20
-1.56999
 30
0.0
 10
0.74
 20
-1.62999
 30
0.0
 10
0.74
 20
-1.62999
 30
0.0
 10
0.74
 20
-1.62999
 30
0.0
 10
0.74
 20
-1.62999
 30
0.0
 10
0.7
 20
-1.62999
 30
0.0
 10
0.7
 20
-1.62999
 30
0.0
 10
0.7
 20
-1.62999
 30
0.0
 10
0.7
 20
-1.62999
 30
0.0
 10
0.7
 20
-1.57
 30
0.0
 10
0.7
 20
-1.57
 30
0.0
  0
SPLINE
  5
62
330
1F
100
AcDbEntity
  8
layer 1
 62
   250
100
AcDbSpline
210
0.0
220
0.0
230
1.0
 70
    11
 71
     3
 72
   140
 73
   136
 74
     0
 42
0.0000000001
 43
0.0000000001
 40
0.0
 40
0.0
 40
0.0
 40
0.0
 40
0.0294117647058824
 40
0.0294117647058824
 40
0.0294117647058824
 40
0.0294117647058824
 40
0.0588235294117647
 40
0.0588235294117647
 40
0.0588235294117647
 40
0.0588235294117647
 40
0.0882352941176471
 40
0.0882352941176471
 40
0.0882352941176471
 40
0.0882352941176471
 40
0.1176470588235294
 40
0.1176470588235294
 40
0.1176470588235294
 40
0.1176470588235294
 40
0.1470588235294118
 40
0.1470588235294118
 40
0.1470588235294118
 40
0.1470588235294118
 40
0.1764705882352941
 40
0.1764705882352941
 40
0.1764705882352941
 40
0.1764705882352941
 40
0.2058823529411765
 40
0.2058823529411765
 40
0.2058823529411765
 40
0.2058823529411765
 40
0.2352941176470588
 40
0.2352941176470588
 40
0.2352941176470588
 40
0.2352941176470588
 40
0.2647058823529412
 40
0.2647058823529412
 40
0.2647058823529412
 40
0.2647058823529412
 40
0.2941176470588235
 40
0.2941176470588235
 40
0.2941176470588235
 40
0.2941176470588235
 40
0.3235294117647059
 40
0.3235294117647059
 40
0.3235294117647059
 40
0.3235294117647059
 40
0.3529411764705883
 40
0.3529411764705883
 40
0.3529411764705883
 40
0.3529411764705883
 40
0.3823529411764706
 40
0.3823529411764706
 40
0.3823529411764706
 40
0.3823529411764706
 40
0.411764705882353
 40
0.411764705882353
 40
0.411764705882353
 40
0.411764705882353
 40
0.4411764705882353
 40
0.4411764705882353
 40
0.4411764705882353
 40
0.4411764705882353
 40
0.4705882352941177
 40
0.4705882352941177
 40
0.4705882352941177
 40
0.4705882352941177
 40
0.5
 40
0.5
 40
0.5
 40
0.5
 40
0.5294117647058824
 40
0.5294117647058824
 40
0.5294117647058824
 40
0.5294117647058824
 40
0.5588235294117647
 40
0.5588235294117647
 40
0.5588235294117647
 40
0.5588235294117647
 40
0.5882352941176471
 40
0.5882352941176471
 40
0.5882352941176471
 40
0.5882352941176471
 40
0.6176470588235294
 40
0.6176470588235294
 40
0.6176470588235294
 40
0.6176470588235294
 40
0.6470588235294118
 40
0.6470588235294118
 40
0.6470588235294118
 40
0.6470588235294118
 40
0.6764705882352942
 40
0.6764705882352942
 40
0.6764705882352942
 40
0.6764705882352942
 40
0.7058823529411765
 40
0.7058823529411765
 40
0.7058823529411765
 40
0.7058823529411765
 40
0.7352941176470589
 40
0.7352941176470589
 40
0.7352941176470589
 40
0.7352941176470589
 40
0.7647058823529412
 40
0.7647058823529412
 40
0.7647058823529412
 40
0.7647058823529412
 40
0.7941176470588236
 40
0.7941176470588236
 40
0.7941176470588236
 40
0.7941176470588236
 40
0.823529411764706
 40
0.823529411764706
 40
0.823529411764706
 40
0.823529411764706
 40
0.8529411764705883
 40
0.8529411764705883
 40
0.8529411764705883
 40
0.8529411764705883
 40
0.8823529411764707
 40
0.8823529411764707
 40
0.8823529411764707
 40
0.8823529411764707
 40
0.911764705882353
 40
0.911764705882353
 40
0.911764705882353
 40
0.911764705882353
 40
0.9411764705882354
 40
0.9411764705882354
 40
0.9411764705882354
 40
0.9411764705882354
 40
0.9705882352941178
 40
0.9705882352941178
 40
0.9705882352941178
 40
0.9705882352941178
 40
1.0
 40
1.0
 40
1.0
 40
1.0
 10
1.39729
 20
-1.39845
 30
0.0
 10
1.35856
 20
-1.41284
 30
0.0
 10
1.3213
 20
-1.42385
 30
0.0
 10
1.28574
 20
-1.43126
 30
0.0
 10
1.28574
 20
-1.43126
 30
0.0
 10
1.25018
 20
-1.43867
 30
0.0
 10
1.2142
 20
-1.44248
 30
0.0
 10
1.17779
 20
-1.44248
 30
0.0
 10
1.17779
 20
-1.44248
 30
0.0
 10
1.11958
 20
-1.44248
 30
0.0
 10
1.0709
 20
-1.43422
 30
0.0
 10
1.03217
 20
-1.41771
 30
0.0
 10
1.03217
 20
-1.41771
 30
0.0
 10
0.99322
 20
-1.40099
 30
0.0
 10
0.9621
 20
-1.37898
 30
0.0
 10
0.93882
 20
-1.35167
 30
0.0
 10
0.93882
 20
-1.35167
 30
0.0
 10
0.91533
 20
-1.32416
 30
0.0
 10
0.89882
 20
-1.29283
 30
0.0
 10
0.88887
 20
-1.25769
 30
0.0
 10
0.88887
 20
-1.25769
 30
0.0
 10
0.87892
 20
-1.22256
 30
0.0
 10
0.87405
 20
-1.18636
 30
0.0
 10
0.87405
 20
-1.14911
 30
0.0
 10
0.87405
 20
-1.14911
 30
0.0
 10
0.87405
 20
-1.13471
 30
0.0
 10
0.87511
 20
-1.11588
 30
0.0
 10
0.87701
 20
-1.09259
 30
0.0
 10
0.87701
 20
-1.09259
 30
0.0
 10
0.87913
 20
-1.06952
 30
0.0
 10
0.88315
 20
-1.04391
 30
0.0
 10
0.88908
 20
-1.01576
 30
0.0
 10
0.88908
 20
-1.01576
 30
0.0
 10
0.89522
 20
-0.98761
 30
0.0
 10
0.90326
 20
-0.95818
 30
0.0
 10
0.91342
 20
-0.92707
 30
0.0
 10
0.91342
 20
-0.92707
 30
0.0
 10
0.92358
 20
-0.89617
 30
0.0
 10
0.9367
 20
-0.86569
 30
0.0
 10
0.95279
 20
-0.83563
 30
0.0
 10
0.95279
 20
-0.83563
 30
0.0
 10
0.96888
 20
-0.80557
 30
0.0
 10
0.98835
 20
-0.777
 30
0.0
 10
1.01142
 20
-0.74969
 30
0.0
 10
1.01142
 20
-0.74969
 30
0.0
 10
1.03428
 20
-0.72239
 30
0.0
 10
1.06116
 20
-0.69847
 30
0.0
 10
1.09186
 20
-0.67751
 30
0.0
 10
1.09186
 20
-0.67751
 30
0.0
 10
1.12276
 20
-0.65656
 30
0.0
 10
1.15811
 20
-0.64005
 30
0.0
 10
1.1979
 20
-0.62798
 30
0.0
 10
1.1979
 20
-0.62798
 30
0.0
 10
1.23791
 20
-0.61571
 30
0.0
 10
1.28299
 20
-0.60957
 30
0.0
 10
1.33358
 20
-0.60957
 30
0.0
 10
1.33358
 20
-0.60957
 30
0.0
 10
1.37062
 20
-0.60957
 30
0.0
 10
1.40639
 20
-0.61211
 30
0.0
 10
1.44047
 20
-0.6174
 30
0.0
 10
1.44047
 20
-0.6174
 30
0.0
 10
1.47455
 20
-0.62248
 30
0.0
 10
1.5063
 20
-0.62968
 30
0.0
 10
1.53572
 20
-0.63878
 30
0.0
 10
1.53572
 20
-0.63878
 30
0.0
 10
1.53572
 20
-0.63878
 30
0.0
 10
1.50651
 20
-0.77954
 30
0.0
 10
1.50651
 20
-0.77954
 30
0.0
 10
1.50651
 20
-0.77954
 30
0.0
 10
1.4809
 20
-0.77001
 30
0.0
 10
1.45296
 20
-0.76176
 30
0.0
 10
1.42248
 20
-0.75477
 30
0.0
 10
1.42248
 20
-0.75477
 30
0.0
 10
1.392
 20
-0.74779
 30
0.0
 10
1.36067
 20
-0.74419
 30
0.0
 10
1.3285
 20
-0.74419
 30
0.0
 10
1.3285
 20
-0.74419
 30
0.0
 10
1.28892
 20
-0.74419
 30
0.0
 10
1.2542
 20
-0.7516
 30
0.0
 10
1.22457
 20
-0.76641
 30
0.0
 10
1.22457
 20
-0.76641
 30
0.0
 10
1.19515
 20
-0.78144
 30
0.0
 10
1.16975
 20
-0.80049
 30
0.0
 10
1.14837
 20
-0.82378
 30
0.0
 10
1.14837
 20
-0.82378
 30
0.0
 10
1.12699
 20
-0.84727
 30
0.0
 10
1.10942
 20
-0.87352
 30
0.0
 10
1.09545
 20
-0.90294
 30
0.0
 10
1.09545
 20
-0.90294
 30
0.0
 10
1.08127
 20
-0.93236
 30
0.0
 10
1.07027
 20
-0.96136
 30
0.0
 10
1.06222
 20
-0.99036
 30
0.0
 10
1.06222
 20
-0.99036
 30
0.0
 10
1.05418
 20
-1.01936
 30
0.0
 10
1.04846
 20
-1.04666
 30
0.0
 10
1.04508
 20
-1.07248
 30
0.0
 10
1.04508
 20
-1.07248
 30
0.0
 10
1.0419
 20
-1.09831
 30
0.0
 10
1.04021
 20
-1.11926
 30
0.0
 10
1.04021
 20
-1.13556
 30
0.0
 10
1.04021
 20
-1.13556
 30
0.0
 10
1.04021
 20
-1.15355
 30
0.0
 10
1.04169
 20
-1.1726
 30
0.0
 10
1.04487
 20
-1.1925
 30
0.0
 10
1.04487
 20
-1.1925
 30
0.0
 10
1.04783
 20
-1.2124
 30
0.0
 10
1.05524
 20
-1.2306
 30
0.0
 10
1.06688
 20
-1.24732
 30
0.0
 10
1.06688
 20
-1.24732
 30
0.0
 10
1.07852
 20
-1.26404
 30
0.0
 10
1.09545
 20
-1.27801
 30
0.0
 10
1.11768
 20
-1.28902
 30
0.0
 10
1.11768
 20
-1.28902
 30
0.0
 10
1.14012
 20
-1.29981
 30
0.0
 10
1.17017
 20
-1.30532
 30
0.0
 10
1.20827
 20
-1.30532
 30
0.0
 10
1.20827
 20
-1.30532
 30
0.0
 10
1.22182
 20
-1.30532
 30
0.0
 10
1.23664
 20
-1.30426
 30
0.0
 10
1.25251
 20
-1.30193
 30
0.0
 10
1.25251
 20
-1.30193
 30
0.0
 10
1.26839
 20
-1.2996
 30
0.0
 10
1.28468
 20
-1.29664
 30
0.0
 10
1.30098
 20
-1.29262
 30
0.0
 10
1.30098
 20
-1.29262
 30
0.0
 10
1.31728
 20
-1.28881
 30
0.0
 10
1.33379
 20
-1.28415
 30
0.0
 10
1.3503
 20
-1.27865
 30
0.0
 10
1.3503
 20
-1.27865
 30
0.0
 10
1.36681
 20
-1.27336
 30
0.0
 10
1.38247
 20
-1.26764
 30
0.0
 10
1.39729
 20
-1.26129
 30
0.0
 10
1.39729
 20
-1.26129
 30
0.0
 10
1.39729
 20
-1.26129
 30
0.0
 10
1.39729
 20
-1.39845
 30
0.0
 10
1.39729
 20
-1.39845
 30
0.0
  0
SPLINE
  5
63
330
1F
100
AcDbEntity
  8
layer 1
 62
   250
100
AcDbSpline
210
0.0
220
0.0
230
1.0
 70
    11
 71
     3
 72
    36
 73
    32
 74
     0
 42
0.0000000001
 43
0.0000000001
 40
0.0
 40
0.0
 40
0.0
 40
0.0
 40
0.125
 40
0.125
 40
0.125
 40
0.125
 40
0.25
 40
0.25
 40
0.25
 40
0.25
 40
0.375
 40
0.375
 40
0.375
 40
0.375
 40
0.5
 40
0.5
 40
0.5
 40
0.5
 40
0.625
 40
0.625
 40
0.625
 40
0.625
 40
0.75
 40
0.75
 40
0.75
 40
0.75
 40
0.875
 40
0.875
 40
0.875
 40
0.875
 40
1.0
 40
1.0
 40
1.0
 40
1.0
 10
1.98784
 20
-1.43126
 30
0.0
 10
1.98784
 20
-1.43126
 30
0.0
 10
1.97472
 20
-1.27124
 30
0.0
 10
1.97472
 20
-1.27124
 30
0.0
 10
1.97472
 20
-1.27124
 30
0.0
 10
1.97472
 20
-1.27124
 30
0.0
 10
1.69193
 20
-1.27124
 30
0.0
 10
1.69193
 20
-1.27124
 30
0.0
 10
1.69193
 20
-1.27124
 30
0.0
 10
1.69193
 20
-1.27124
 30
0.0
 10
1.61446
 20
-1.43126
 30
0.0
 10
1.61446
 20
-1.43126
 30
0.0
 10
1.61446
 20
-1.43126
 30
0.0
 10
1.61446
 20
-1.43126
 30
0.0
 10
1.45571
 20
-1.43126
 30
0.0
 10
1.45571
 20
-1.43126
 30
0.0
 10
1.45571
 20
-1.43126
 30
0.0
 10
1.45571
 20
-1.43126
 30
0.0
 10
1.85809
 20
-0.62079
 30
0.0
 10
1.85809
 20
-0.62079
 30
0.0
 10
1.85809
 20
-0.62079
 30
0.0
 10
1.85809
 20
-0.62079
 30
0.0
 10
2.07145
 20
-0.62079
 30
0.0
 10
2.07145
 20
-0.62079
 30
0.0
 10
2.07145
 20
-0.62079
 30
0.0
 10
2.07145
 20
-0.62079
 30
0.0
 10
2.14892
 20
-1.43126
 30
0.0
 10
2.14892
 20
-1.43126
 30
0.0
 10
2.14892
 20
-1.43126
 30
0.0
 10
2.14892
 20
-1.43126
 30
0.0
 10
1.98784
 20
-1.43126
 30
0.0
 10
1.98784
 20
-1.43126
 30
0.0
  0
SPLINE
  5
64
330
1F
100
AcDbEntity
  8
layer 1
 62
   250
100
AcDbSpline
210
0.0
220
0.0
230
1.0
 70
    11
 71
     3
 72
    16
 73
    12
 74
     0
 42
0.0000000001
 43
0.0000000001
 40
0.0
 40
0.0
 40
0.0
 40
0.0
 40
0.3333333333333333
 40
0.3333333333333333
 40
0.3333333333333333
 40
0.3333333333333333
 40
0.6666666666666666
 40
0.6666666666666666
 40
0.6666666666666666
 40
0.6666666666666666
 40
1.0
 40
1.0
 40
1.0
 40
1.0
 10
1.93556
 20
-0.76959
 30
0.0
 10
1.93556
 20
-0.76959
 30
0.0
 10
1.75268
 20
-1.14657
 30
0.0
 10
1.75268
 20
-1.14657
 30
0.0
 10
1.75268
 20
-1.14657
 30
0.0
 10
1.75268
 20
-1.14657
 30
0.0
 10
1.96477
 20
-1.14657
 30
0.0
 10
1.96477
 20
-1.14657
 30
0.0
 10
1.96477
 20
-1.14657
 30
0.0
 10
1.96477
 20
-1.14657
 30
0.0
 10
1.93556
 20
-0.76959
 30
0.0
 10
1.93556
 20
-0.76959
 30
0.0
  0
SPLINE
  5
65
330
1F
100
AcDbEntity
  8
layer 1
 62
   250
100
AcDbSpline
210
0.0
220
0.0
230
1.0
 70
    11
 71
     3
 72
    60
 73
    56
 74
     0
 42
0.0000000001
 43
0.0000000001
 40
0.0
 40
0.0
 40
0.0
 40
0.0
 40
0.0714285714285714
 40
0.0714285714285714
 40
0.0714285714285714
 40
0.0714285714285714
 40
0.1428571428571428
 40
0.1428571428571428
 40
0.1428571428571428
 40
0.1428571428571428
 40
0.2142857142857143
 40
0.2142857142857143
 40
0.2142857142857143
 40
0.2142857142857143
 40
0.2857142857142857
 40
0.2857142857142857
 40
0.2857142857142857
 40
0.2857142857142857
 40
0.3571428571428571
 40
0.3571428571428571
 40
0.3571428571428571
 40
0.3571428571428571
 40
0.4285714285714285
 40
0.4285714285714285
 40
0.4285714285714285
 40
0.4285714285714285
 40
0.4999999999999999
 40
0.4999999999999999
 40
0.4999999999999999
 40
0.4999999999999999
 40
0.5714285714285713
 40
0.5714285714285713
 40
0.5714285714285713
 40
0.5714285714285713
 40
0.6428571428571427
 40
0.6428571428571427
 40
0.6428571428571427
 40
0.6428571428571427
 40
0.7142857142857141
 40
0.7142857142857141
 40
0.7142857142857141
 40
0.7142857142857141
 40
0.7857142857142855
 40
0.7857142857142855
 40
0.7857142857142855
 40
0.7857142857142855
 40
0.8571428571428569
 40
0.8571428571428569
 40
0.8571428571428569
 40
0.8571428571428569
 40
0.9285714285714283
 40
0.9285714285714283
 40
0.9285714285714283
 40
0.9285714285714283
 40
1.0
 40
1.0
 40
1.0
 40
1.0
 10
2.61353
 20
-1.43126
 30
0.0
 10
2.61353
 20
-1.43126
 30
0.0
 10
2.49309
 20
-0.9476
 30
0.0
 10
2.49309
 20
-0.9476
 30
0.0
 10
2.49309
 20
-0.9476
 30
0.0
 10
2.49309
 20
-0.9476
 30
0.0
 10
2.46896
 20
-0.84346
 30
0.0
 10
2.46896
 20
-0.84346
 30
0.0
 10
2.46896
 20
-0.84346
 30
0.0
 10
2.46896
 20
-0.84346
 30
0.0
 10
2.40144
 20
-1.17959
 30
0.0
 10
2.40144
 20
-1.17959
 30
0.0
 10
2.40144
 20
-1.17959
 30
0.0
 10
2.40144
 20
-1.17959
 30
0.0
 10
2.3517
 20
-1.43126
 30
0.0
 10
2.3517
 20
-1.43126
 30
0.0
 10
2.3517
 20
-1.43126
 30
0.0
 10
2.3517
 20
-1.43126
 30
0.0
 10
2.21348
 20
-1.43126
 30
0.0
 10
2.21348
 20
-1.43126
 30
0.0
 10
2.21348
 20
-1.43126
 30
0.0
 10
2.21348
 20
-1.43126
 30
0.0
 10
2.37604
 20
-0.62079
 30
0.0
 10
2.37604
 20
-0.62079
 30
0.0
 10
2.37604
 20
-0.62079
 30
0.0
 10
2.37604
 20
-0.62079
 30
0.0
 10
2.55511
 20
-0.62079
 30
0.0
 10
2.55511
 20
-0.62079
 30
0.0
 10
2.55511
 20
-0.62079
 30
0.0
 10
2.55511
 20
-0.62079
 30
0.0
 10
2.67851
 20
-1.10762
 30
0.0
 10
2.67851
 20
-1.10762
 30
0.0
 10
2.67851
 20
-1.10762
 30
0.0
 10
2.67851
 20
-1.10762
 30
0.0
 10
2.69841
 20
-1.20245
 30
0.0
 10
2.69841
 20
-1.20245
 30
0.0
 10
2.69841
 20
-1.20245
 30
0.0
 10
2.69841
 20
-1.20245
 30
0.0
 10
2.76974
 20
-0.84473
 30
0.0
 10
2.76974
 20
-0.84473
 30
0.0
 10
2.76974
 20
-0.84473
 30
0.0
 10
2.76974
 20
-0.84473
 30
0.0
 10
2.81567
 20
-0.62079
 30
0.0
 10
2.81567
 20
-0.62079
 30
0.0
 10
2.81567
 20
-0.62079
 30
0.0
 10
2.81567
 20
-0.62079
 30
0.0
 10
2.95516
 20
-0.62079
 30
0.0
 10
2.95516
 20
-0.62079
 30
0.0
 10
2.95516
 20
-0.62079
 30
0.0
 10
2.95516
 20
-0.62079
 30
0.0
 10
2.7926
 20
-1.43126
 30
0.0
 10
2.7926
 20
-1.43126
 30
0.0
 10
2.7926
 20
-1.43126
 30
0.0
 10
2.7926
 20
-1.43126
 30
0.0
 10
2.61353
 20
-1.43126
 30
0.0
 10
2.61353
 20
-1.43126
 30
0.0
  0
SPLINE
  5
66
330
1F
100
AcDbEntity
  8
layer 1
 62
   152
100
AcDbSpline
210
0.0
220
0.0
230
1.0
 70
    11
 71
     3
 72
   100
 73
    96
 74
     0
 42
0.0000000001
 43
0.0000000001
 40
0.0
 40
0.0
 40
0.0
 40
0.0
 40
0.0416666666666667
 40
0.0416666666666667
 40
0.0416666666666667
 40
0.0416666666666667
 40
0.0833333333333333
 40
0.0833333333333333
 40
0.0833333333333333
 40
0.0833333333333333
 40
0.125
 40
0.125
 40
0.125
 40
0.125
 40
0.1666666666666667
 40
0.1666666666666667
 40
0.1666666666666667
 40
0.1666666666666667
 40
0.2083333333333333
 40
0.2083333333333333
 40
0.2083333333333333
 40
0.2083333333333333
 40
0.25
 40
0.25
 40
0.25
 40
0.25
 40
0.2916666666666666
 40
0.2916666666666666
 40
0.2916666666666666
 40
0.2916666666666666
 40
0.3333333333333333
 40
0.3333333333333333
 40
0.3333333333333333
 40
0.3333333333333333
 40
0.375
 40
0.375
 40
0.375
 40
0.375
 40
0.4166666666666667
 40
0.4166666666666667
 40
0.4166666666666667
 40
0.4166666666666667
 40
0.4583333333333334
 40
0.4583333333333334
 40
0.4583333333333334
 40
0.4583333333333334
 40
0.5
 40
0.5
 40
0.5
 40
0.5
 40
0.5416666666666666
 40
0.5416666666666666
 40
0.5416666666666666
 40
0.5416666666666666
 40
0.5833333333333333
 40
0.5833333333333333
 40
0.5833333333333333
 40
0.5833333333333333
 40
0.6249999999999999
 40
0.6249999999999999
 40
0.6249999999999999
 40
0.6249999999999999
 40
0.6666666666666665
 40
0.6666666666666665
 40
0.6666666666666665
 40
0.6666666666666665
 40
0.7083333333333331
 40
0.7083333333333331
 40
0.7083333333333331
 40
0.7083333333333331
 40
0.7499999999999998
 40
0.7499999999999998
 40
0.7499999999999998
 40
0.7499999999999998
 40
0.7916666666666664
 40
0.7916666666666664
 40
0.7916666666666664
 40
0.7916666666666664
 40
0.833333333333333
 40
0.833333333333333
 40
0.833333333333333
 40
0.833333333333333
 40
0.8749999999999997
 40
0.8749999999999997
 40
0.8749999999999997
 40
0.8749999999999997
 40
0.9166666666666663
 40
0.9166666666666663
 40
0.9166666666666663
 40
0.9166666666666663
 40
0.9583333333333329
 40
0.9583333333333329
 40
0.9583333333333329
 40
0.9583333333333329
 40
1.0
 40
1.0
 40
1.0
 40
1.0
 10
-0.71777
 20
-1.14257
 30
0.0
 10
-0.72815
 20
-1.19443
 30
0.0
 10
-0.74317
 20
-1.23909
 30
0.0
 10
-0.76307
 20
-1.27698
 30
0.0
 10
-0.76307
 20
-1.27698
 30
0.0
 10
-0.78297
 20
-1.31465
 30
0.0
 10
-0.80752
 20
-1.34598
 30
0.0
 10
-0.83694
 20
-1.37053
 30
0.0
 10
-0.83694
 20
-1.37053
 30
0.0
 10
-0.86636
 20
-1.39509
 30
0.0
 10
-0.90044
 20
-1.41329
 30
0.0
 10
-0.93918
 20
-1.42514
 30
0.0
 10
-0.93918
 20
-1.42514
 30
0.0
 10
-0.97812
 20
-1.437
 30
0.0
 10
-1.0213
 20
-1.44271
 30
0.0
 10
-1.06893
 20
-1.44271
 30
0.0
 10
-1.06893
 20
-1.44271
 30
0.0
 10
-1.11274
 20
-1.44271
 30
0.0
 10
-1.15063
 20
-1.43784
 30
0.0
 10
-1.18259
 20
-1.42789
 30
0.0
 10
-1.18259
 20
-1.42789
 30
0.0
 10
-1.21477
 20
-1.41795
 30
0.0
 10
-1.24101
 20
-1.40376
 30
0.0
 10
-1.26133
 20
-1.38514
 30
0.0
 10
-1.26133
 20
-1.38514
 30
0.0
 10
-1.28187
 20
-1.36651
 30
0.0
 10
-1.29647
 20
-1.34429
 30
0.0
 10
-1.30536
 20
-1.31825
 30
0.0
 10
-1.30536
 20
-1.31825
 30
0.0
 10
-1.31425
 20
-1.292
 30
0.0
 10
-1.3187
 20
-1.26301
 30
0.0
 10
-1.3187
 20
-1.23062
 30
0.0
 10
-1.3187
 20
-1.23062
 30
0.0
 10
-1.3187
 20
-1.20353
 30
0.0
 10
-1.31531
 20
-1.17411
 30
0.0
 10
-1.30811
 20
-1.14257
 30
0.0
 10
-1.30811
 20
-1.14257
 30
0.0
 10
-1.30811
 20
-1.14257
 30
0.0
 10
-1.20334
 20
-0.61806
 30
0.0
 10
-1.20334
 20
-0.61806
 30
0.0
 10
-1.20334
 20
-0.61806
 30
0.0
 10
-1.20334
 20
-0.61806
 30
0.0
 10
-1.05094
 20
-0.61806
 30
0.0
 10
-1.05094
 20
-0.61806
 30
0.0
 10
-1.05094
 20
-0.61806
 30
0.0
 10
-1.05094
 20
-0.61806
 30
0.0
 10
-1.15635
 20
-1.14638
 30
0.0
 10
-1.15635
 20
-1.14638
 30
0.0
 10
-1.15635
 20
-1.14638
 30
0.0
 10
-1.16122
 20
-1.17199
 30
0.0
 10
-1.16376
 20
-1.19464
 30
0.0
 10
-1.16376
 20
-1.2139
 30
0.0
 10
-1.16376
 20
-1.2139
 30
0.0
 10
-1.16376
 20
-1.23083
 30
0.0
 10
-1.16164
 20
-1.24586
 30
0.0
 10
-1.15741
 20
-1.25856
 30
0.0
 10
-1.15741
 20
-1.25856
 30
0.0
 10
-1.15338
 20
-1.27147
 30
0.0
 10
-1.14703
 20
-1.28227
 30
0.0
 10
-1.13836
 20
-1.29095
 30
0.0
 10
-1.13836
 20
-1.29095
 30
0.0
 10
-1.12968
 20
-1.29962
 30
0.0
 10
-1.11782
 20
-1.30597
 30
0.0
 10
-1.10301
 20
-1.31042
 30
0.0
 10
-1.10301
 20
-1.31042
 30
0.0
 10
-1.08798
 20
-1.31465
 30
0.0
 10
-1.0702
 20
-1.31698
 30
0.0
 10
-1.04967
 20
-1.31698
 30
0.0
 10
-1.04967
 20
-1.31698
 30
0.0
 10
-1.0249
 20
-1.31698
 30
0.0
 10
-1.00268
 20
-1.31381
 30
0.0
 10
-0.98299
 20
-1.30724
 30
0.0
 10
-0.98299
 20
-1.30724
 30
0.0
 10
-0.96331
 20
-1.30089
 30
0.0
 10
-0.94616
 20
-1.29052
 30
0.0
 10
-0.93156
 20
-1.27634
 30
0.0
 10
-0.93156
 20
-1.27634
 30
0.0
 10
-0.91674
 20
-1.26195
 30
0.0
 10
-0.90446
 20
-1.24374
 30
0.0
 10
-0.89452
 20
-1.22173
 30
0.0
 10
-0.89452
 20
-1.22173
 30
0.0
 10
-0.88457
 20
-1.19951
 30
0.0
 10
-0.87652
 20
-1.17262
 30
0.0
 10
-0.87039
 20
-1.14087
 30
0.0
 10
-0.87039
 20
-1.14087
 30
0.0
 10
-0.87039
 20
-1.14087
 30
0.0
 10
-0.76498
 20
-0.61806
 30
0.0
 10
-0.76498
 20
-0.61806
 30
0.0
 10
-0.76498
 20
-0.61806
 30
0.0
 10
-0.76498
 20
-0.61806
 30
0.0
 10
-0.61173
 20
-0.61806
 30
0.0
 10
-0.61173
 20
-0.61806
 30
0.0
 10
-0.61173
 20
-0.61806
 30
0.0
 10
-0.61173
 20
-0.61806
 30
0.0
 10
-0.71777
 20
-1.14257
 30
0.0
 10
-0.71777
 20
-1.14257
 30
0.0
  0
SPLINE
  5
67
330
1F
100
AcDbEntity
  8
layer 1
 62
   152
100
AcDbSpline
210
0.0
220
0.0
230
1.0
 70
    11
 71
     3
 72
    36
 73
    32
 74
     0
 42
0.0000000001
 43
0.0000000001
 40
0.0
 40
0.0
 40
0.0
 40
0.0
 40
0.125
 40
0.125
 40
0.125
 40
0.125
 40
0.25
 40
0.25
 40
0.25
 40
0.25
 40
0.375
 40
0.375
 40
0.375
 40
0.375
 40
0.5
 40
0.5
 40
0.5
 40
0.5
 40
0.625
 40
0.625
 40
0.625
 40
0.625
 40
0.75
 40
0.75
 40
0.75
 40
0.75
 40
0.875
 40
0.875
 40
0.875
 40
0.875
 40
1.0
 40
1.0
 40
1.0
 40
1.0
 10
-0.18628
 20
-1.42853
 30
0.0
 10
-0.18628
 20
-1.42853
 30
0.0
 10
-0.1994
 20
-1.26851
 30
0.0
 10
-0.1994
 20
-1.26851
 30
0.0
 10
-0.1994
 20
-1.26851
 30
0.0
 10
-0.1994
 20
-1.26851
 30
0.0
 10
-0.48219
 20
-1.26851
 30
0.0
 10
-0.48219
 20
-1.26851
 30
0.0
 10
-0.48219
 20
-1.26851
 30
0.0
 10
-0.48219
 20
-1.26851
 30
0.0
 10
-0.55966
 20
-1.42853
 30
0.0
 10
-0.55966
 20
-1.42853
 30
0.0
 10
-0.55966
 20
-1.42853
 30
0.0
 10
-0.55966
 20
-1.42853
 30
0.0
 10
-0.71841
 20
-1.42853
 30
0.0
 10
-0.71841
 20
-1.42853
 30
0.0
 10
-0.71841
 20
-1.42853
 30
0.0
 10
-0.71841
 20
-1.42853
 30
0.0
 10
-0.31603
 20
-0.61806
 30
0.0
 10
-0.31603
 20
-0.61806
 30
0.0
 10
-0.31603
 20
-0.61806
 30
0.0
 10
-0.31603
 20
-0.61806
 30
0.0
 10
-0.10267
 20
-0.61806
 30
0.0
 10
-0.10267
 20
-0.61806
 30
0.0
 10
-0.10267
 20
-0.61806
 30
0.0
 10
-0.10267
 20
-0.61806
 30
0.0
 10
-0.0252
 20
-1.42853
 30
0.0
 10
-0.0252
 20
-1.42853
 30
0.0
 10
-0.0252
 20
-1.42853
 30
0.0
 10
-0.0252
 20
-1.42853
 30
0.0
 10
-0.18628
 20
-1.42853
 30
0.0
 10
-0.18628
 20
-1.42853
 30
0.0
  0
SPLINE
  5
68
330
1F
100
AcDbEntity
  8
layer 1
 62
   152
100
AcDbSpline
210
0.0
220
0.0
230
1.0
 70
    11
 71
     3
 72
    16
 73
    12
 74
     0
 42
0.0000000001
 43
0.0000000001
 40
0.0
 40
0.0
 40
0.0
 40
0.0
 40
0.3333333333333333
 40
0.3333333333333333
 40
0.3333333333333333
 40
0.3333333333333333
 40
0.6666666666666666
 40
0.6666666666666666
 40
0.6666666666666666
 40
0.6666666666666666
 40
1.0
 40
1.0
 40
1.0
 40
1.0
 10
-0.23856
 20
-0.76686
 30
0.0
 10
-0.23856
 20
-0.76686
 30
0.0
 10
-0.42144
 20
-1.14384
 30
0.0
 10
-0.42144
 20
-1.14384
 30
0.0
 10
-0.42144
 20
-1.14384
 30
0.0
 10
-0.42144
 20
-1.14384
 30
0.0
 10
-0.20935
 20
-1.14384
 30
0.0
 10
-0.20935
 20
-1.14384
 30
0.0
 10
-0.20935
 20
-1.14384
 30
0.0
 10
-0.20935
 20
-1.14384
 30
0.0
 10
-0.23856
 20
-0.76686
 30
0.0
 10
-0.23856
 20
-0.76686
 30
0.0
  0
SPLINE
  5
69
330
1F
100
AcDbEntity
  8
layer 1
 62
   152
100
AcDbSpline
210
0.0
220
0.0
230
1.0
 70
    11
 71
     3
 72
    40
 73
    36
 74
     0
 42
0.0000000001
 43
0.0000000001
 40
0.0
 40
0.0
 40
0.0
 40
0.0
 40
0.1111111111111111
 40
0.1111111111111111
 40
0.1111111111111111
 40
0.1111111111111111
 40
0.2222222222222222
 40
0.2222222222222222
 40
0.2222222222222222
 40
0.2222222222222222
 40
0.3333333333333333
 40
0.3333333333333333
 40
0.3333333333333333
 40
0.3333333333333333
 40
0.4444444444444444
 40
0.4444444444444444
 40
0.4444444444444444
 40
0.4444444444444444
 40
0.5555555555555556
 40
0.5555555555555556
 40
0.5555555555555556
 40
0.5555555555555556
 40
0.6666666666666667
 40
0.6666666666666667
 40
0.6666666666666667
 40
0.6666666666666667
 40
0.7777777777777779
 40
0.7777777777777779
 40
0.7777777777777779
 40
0.7777777777777779
 40
0.8888888888888891
 40
0.8888888888888891
 40
0.8888888888888891
 40
0.8888888888888891
 40
1.0
 40
1.0
 40
1.0
 40
1.0
 10
0.42692
 20
-1.42853
 30
0.0
 10
0.42692
 20
-1.42853
 30
0.0
 10
0.22478
 20
-1.42853
 30
0.0
 10
0.22478
 20
-1.42853
 30
0.0
 10
0.22478
 20
-1.42853
 30
0.0
 10
0.22478
 20
-1.42853
 30
0.0
 10
0.1399
 20
-0.61806
 30
0.0
 10
0.1399
 20
-0.61806
 30
0.0
 10
0.1399
 20
-0.61806
 30
0.0
 10
0.1399
 20
-0.61806
 30
0.0
 10
0.30352
 20
-0.61806
 30
0.0
 10
0.30352
 20
-0.61806
 30
0.0
 10
0.30352
 20
-0.61806
 30
0.0
 10
0.30352
 20
-0.61806
 30
0.0
 10
0.34564
 20
-1.10616
 30
0.0
 10
0.34564
 20
-1.10616
 30
0.0
 10
0.34564
 20
-1.10616
 30
0.0
 10
0.34564
 20
-1.10616
 30
0.0
 10
0.35813
 20
-1.26597
 30
0.0
 10
0.35813
 20
-1.26597
 30
0.0
 10
0.35813
 20
-1.26597
 30
0.0
 10
0.35813
 20
-1.26597
 30
0.0
 10
0.43814
 20
-1.09685
 30
0.0
 10
0.43814
 20
-1.09685
 30
0.0
 10
0.43814
 20
-1.09685
 30
0.0
 10
0.43814
 20
-1.09685
 30
0.0
 10
0.66695
 20
-0.61806
 30
0.0
 10
0.66695
 20
-0.61806
 30
0.0
 10
0.66695
 20
-0.61806
 30
0.0
 10
0.66695
 20
-0.61806
 30
0.0
 10
0.83819
 20
-0.61806
 30
0.0
 10
0.83819
 20
-0.61806
 30
0.0
 10
0.83819
 20
-0.61806
 30
0.0
 10
0.83819
 20
-0.61806
 30
0.0
 10
0.42692
 20
-1.42853
 30
0.0
 10
0.42692
 20
-1.42853
 30
0.0
  0
ENDSEC
  0
SECTION
  2
OBJECTS
  0
DICTIONARY
  5
C
330
0
100
AcDbDictionary
281
     1
  3
ACAD_GROUP
350
D
  3
ACAD_LAYOUT
350
1A
  3
ACAD_MLEADERSTYLE
350
6B
  3
ACAD_MLINESTYLE
350
17
  3
ACAD_PLOTSETTINGS
350
19
  3
ACAD_PLOTSTYLENAME
350
E
  3
ACAD_SCALELIST
350
3B
  3
ACAD_TABLESTYLE
350
6A
  3
ACAD_VISUALSTYLE
350
2A
  0
DICTIONARY
  5
D
102
{ACAD_REACTORS
330
C
102
}
330
C
100
AcDbDictionary
281
     1
  0
DICTIONARY
  5
1A
102
{ACAD_REACTORS
330
C
102
}
330
C
100
AcDbDictionary
281
     1
  3
Layout1
350
1E
  3
Layout2
350
26
  3
Model
350
22
  0
DICTIONARY
  5
6B
102
{ACAD_REACTORS
330
C
102
}
330
C
100
AcDbDictionary
281
     1
  0
DICTIONARY
  5
17
102
{ACAD_REACTORS
330
C
102
}
330
C
100
AcDbDictionary
281
     1
  3
Standard
350
18
  0
DICTIONARY
  5
19
102
{ACAD_REACTORS
330
C
102
}
330
C
100
AcDbDictionary
281
     1
  0
ACDBDICTIONARYWDFLT
  5
E
102
{ACAD_REACTORS
330
C
102
}
330
C
100
AcDbDictionary
281
     1
  3
Normal
350
F
100
AcDbDictionaryWithDefault
340
F
  0
DICTIONARY
  5
3B
102
{ACAD_REACTORS
330
C
102
}
330
C
100
AcDbDictionary
281
     1
  3
A0
350
3C
  3
A1
350
3D
  3
A2
350
3E
  3
A3
350
3F
  3
A4
350
40
  3
A5
350
41
  3
A6
350
42
  3
A7
350
43
  3
A8
350
44
  3
A9
350
45
  3
B0
350
46
  3
B1
350
47
  3
B2
350
48
  3
B3
350
49
  3
B4
350
4A
  3
B5
350
4B
  3
B6
350
4C
  3
B7
350
4D
  3
B8
350
4E
  3
B9
350
4F
  3
C0
350
50
  3
C1
350
51
  3
C2
350
52
  3
C3
350
53
  3
C4
350
54
  3
C5
350
55
  3
C6
350
56
  3
C7
350
57
  3
C8
350
58
  3
C9
350
59
  3
D0
350
5A
  3
D1
350
5B
  3
D2
350
5C
  0
DICTIONARY
  5
6A
102
{ACAD_REACTORS
330
C
102
}
330
C
100
AcDbDictionary
281
     1
  0
DICTIONARY
  5
2A
102
{ACAD_REACTORS
330
C
102
}
330
C
100
AcDbDictionary
281
     1
  3
2dWireframe
350
2F
  3
3D Hidden
350
31
  3
3dWireframe
350
30
  3
Basic
350
32
  3
Brighten
350
36
  3
ColorChange
350
3A
  3
Conceptual
350
34
  3
Dim
350
35
  3
Facepattern
350
39
  3
Flat
350
2B
  3
FlatWithEdges
350
2C
  3
Gouraud
350
2D
  3
GouraudWithEdges
350
2E
  3
Linepattern
350
38
  3
Realistic
350
33
  3
Thicken
350
37
  0
LAYOUT
  5
1E
102
{ACAD_REACTORS
330
1A
102
}
330
1A
100
AcDbPlotSettings
  1

  2
none_device
  4

  6

 40
0.0
 41
0.0
 42
0.0
 43
0.0
 44
0.0
 45
0.0
 46
0.0
 47
0.0
 48
0.0
 49
0.0
140
0.0
141
0.0
142
1.0
143
1.0
 70
   688
 72
     0
 73
     0
 74
     5
  7

 75
    16
 76
     0
 77
     2
 78
   300
147
1.0
148
0.0
149
0.0
100
AcDbLayout
  1
Layout1
 70
     1
 71
     1
 10
0.0
 20
0.0
 11
12.0
 21
9.0
 12
0.0
 22
0.0
 32
0.0
 14
1.000000000000000E+20
 24
1.000000000000000E+20
 34
1.000000000000000E+20
 15
-1.000000000000000E+20
 25
-1.000000000000000E+20
 35
-1.000000000000000E+20
146
0.0
 13
0.0
 23
0.0
 33
0.0
 16
1.0
 26
0.0
 36
0.0
 17
0.0
 27
1.0
 37
0.0
 76
     0
330
1B
  0
LAYOUT
  5
26
102
{ACAD_REACTORS
330
1A
102
}
330
1A
100
AcDbPlotSettings
  1

  2
none_device
  4

  6

 40
0.0
 41
0.0
 42
0.0
 43
0.0
 44
0.0
 45
0.0
 46
0.0
 47
0.0
 48
0.0
 49
0.0
140
0.0
141
0.0
142
1.0
143
1.0
 70
   688
 72
     0
 73
     0
 74
     5
  7

 75
    16
 76
     0
 77
     2
 78
   300
147
1.0
148
0.0
149
0.0
100
AcDbLayout
  1
Layout2
 70
     1
 71
     2
 10
0.0
 20
0.0
 11
0.0
 21
0.0
 12
0.0
 22
0.0
 32
0.0
 14
0.0
 24
0.0
 34
0.0
 15
0.0
 25
0.0
 35
0.0
146
0.0
 13
0.0
 23
0.0
 33
0.0
 16
1.0
 26
0.0
 36
0.0
 17
0.0
 27
1.0
 37
0.0
 76
     0
330
23
  0
LAYOUT
  5
22
102
{ACAD_REACTORS
330
1A
102
}
330
1A
100
AcDbPlotSettings
  1

  2
none_device
  4

  6

 40
0.0
 41
0.0
 42
0.0
 43
0.0
 44
0.0
 45
0.0
 46
0.0
 47
0.0
 48
0.0
 49
0.0
140
0.0
141
0.0
142
1.0
143
1.0
 70
  1712
 72
     0
 73
     0
 74
     0
  7

 75
     0
 76
     0
 77
     2
 78
   300
147
1.0
148
0.0
149
0.0
100
AcDbLayout
  1
Model
 70
     1
 71
     0
 10
0.0
 20
0.0
 11
12.0
 21
9.0
 12
0.0
 22
0.0
 32
0.0
 14
-1.35595
 24
-1.7
 34
0.0
 15
2.95516
 25
0.00002
 35
0.0
146
0.0
 13
0.0
 23
0.0
 33
0.0
 16
1.0
 26
0.0
 36
0.0
 17
0.0
 27
1.0
 37
0.0
 76
     0
330
1F
331
29
  0
MLINESTYLE
  5
18
102
{ACAD_REACTORS
330
17
102
}
330
17
100
AcDbMlineStyle
  2
Standard
 70
     0
  3

 62
   256
 51
90.0
 52
90.0
 71
     2
 49
0.5
 62
   256
  6
BYLAYER
 49
-0.5
 62
   256
  6
BYLAYER
  0
ACDBPLACEHOLDER
  5
F
102
{ACAD_REACTORS
330
E
102
}
330
E
  0
SCALE
  5
3C
102
{ACAD_REACTORS
330
3B
102
}
330
3B
100
AcDbScale
 70
     0
300
1:1
140
1.0
141
1.0
290
     1
  0
SCALE
  5
3D
102
{ACAD_REACTORS
330
3B
102
}
330
3B
100
AcDbScale
 70
     0
300
1:2
140
1.0
141
2.0
290
     0
  0
SCALE
  5
3E
102
{ACAD_REACTORS
330
3B
102
}
330
3B
100
AcDbScale
 70
     0
300
1:4
140
1.0
141
4.0
290
     0
  0
SCALE
  5
3F
102
{ACAD_REACTORS
330
3B
102
}
330
3B
100
AcDbScale
 70
     0
300
1:5
140
1.0
141
5.0
290
     0
  0
SCALE
  5
40
102
{ACAD_REACTORS
330
3B
102
}
330
3B
100
AcDbScale
 70
     0
300
1:8
140
1.0
141
8.0
290
     0
  0
SCALE
  5
41
102
{ACAD_REACTORS
330
3B
102
}
330
3B
100
AcDbScale
 70
     0
300
1:10
140
1.0
141
10.0
290
     0
  0
SCALE
  5
42
102
{ACAD_REACTORS
330
3B
102
}
330
3B
100
AcDbScale
 70
     0
300
1:16
140
1.0
141
16.0
290
     0
  0
SCALE
  5
43
102
{ACAD_REACTORS
330
3B
102
}
330
3B
100
AcDbScale
 70
     0
300
1:20
140
1.0
141
20.0
290
     0
  0
SCALE
  5
44
102
{ACAD_REACTORS
330
3B
102
}
330
3B
100
AcDbScale
 70
     0
300
1:30
140
1.0
141
30.0
290
     0
  0
SCALE
  5
45
102
{ACAD_REACTORS
330
3B
102
}
330
3B
100
AcDbScale
 70
     0
300
1:40
140
1.0
141
40.0
290
     0
  0
SCALE
  5
46
102
{ACAD_REACTORS
330
3B
102
}
330
3B
100
AcDbScale
 70
     0
300
1:50
140
1.0
141
50.0
290
     0
  0
SCALE
  5
47
102
{ACAD_REACTORS
330
3B
102
}
330
3B
100
AcDbScale
 70
     0
300
1:100
140
1.0
141
100.0
290
     0
  0
SCALE
  5
48
102
{ACAD_REACTORS
330
3B
102
}
330
3B
100
AcDbScale
 70
     0
300
2:1
140
2.0
141
1.0
290
     0
  0
SCALE
  5
49
102
{ACAD_REACTORS
330
3B
102
}
330
3B
100
AcDbScale
 70
     0
300
4:1
140
4.0
141
1.0
290
     0
  0
SCALE
  5
4A
102
{ACAD_REACTORS
330
3B
102
}
330
3B
100
AcDbScale
 70
     0
300
8:1
140
8.0
141
1.0
290
     0
  0
SCALE
  5
4B
102
{ACAD_REACTORS
330
3B
102
}
330
3B
100
AcDbScale
 70
     0
300
10:1
140
10.0
141
1.0
290
     0
  0
SCALE
  5
4C
102
{ACAD_REACTORS
330
3B
102
}
330
3B
100
AcDbScale
 70
     0
300
100:1
140
100.0
141
1.0
290
     0
  0
SCALE
  5
4D
102
{ACAD_REACTORS
330
3B
102
}
330
3B
100
AcDbScale
 70
     0
300
1/128" = 1'-0"
140
0.0078125
141
12.0
290
     0
  0
SCALE
  5
4E
102
{ACAD_REACTORS
330
3B
102
}
330
3B
100
AcDbScale
 70
     0
300
1/64" = 1'-0"
140
0.015625
141
12.0
290
     0
  0
SCALE
  5
4F
102
{ACAD_REACTORS
330
3B
102
}
330
3B
100
AcDbScale
 70
     0
300
1/32" = 1'-0"
140
0.03125
141
12.0
290
     0
  0
SCALE
  5
50
102
{ACAD_REACTORS
330
3B
102
}
330
3B
100
AcDbScale
 70
     0
300
1/16" = 1'-0"
140
0.0625
141
12.0
290
     0
  0
SCALE
  5
51
102
{ACAD_REACTORS
330
3B
102
}
330
3B
100
AcDbScale
 70
     0
300
3/32" = 1'-0"
140
0.09375
141
12.0
290
     0
  0
SCALE
  5
52
102
{ACAD_REACTORS
330
3B
102
}
330
3B
100
AcDbScale
 70
     0
300
1/8" = 1'-0"
140
0.125
141
12.0
290
     0
  0
SCALE
  5
53
102
{ACAD_REACTORS
330
3B
102
}
330
3B
100
AcDbScale
 70
     0
300
3/16" = 1'-0"
140
0.1875
141
12.0
290
     0
  0
SCALE
  5
54
102
{ACAD_REACTORS
330
3B
102
}
330
3B
100
AcDbScale
 70
     0
300
1/4" = 1'-0"
140
0.25
141
12.0
290
     0
  0
SCALE
  5
55
102
{ACAD_REACTORS
330
3B
102
}
330
3B
100
AcDbScale
 70
     0
300
3/8" = 1'-0"
140
0.375
141
12.0
290
     0
  0
SCALE
  5
56
102
{ACAD_REACTORS
330
3B
102
}
330
3B
100
AcDbScale
 70
     0
300
1/2" = 1'-0"
140
0.5
141
12.0
290
     0
  0
SCALE
  5
57
102
{ACAD_REACTORS
330
3B
102
}
330
3B
100
AcDbScale
 70
     0
300
3/4" = 1'-0"
140
0.75
141
12.0
290
     0
  0
SCALE
  5
58
102
{ACAD_REACTORS
330
3B
102
}
330
3B
100
AcDbScale
 70
     0
300
1" = 1'-0"
140
1.0
141
12.0
290
     0
  0
SCALE
  5
59
102
{ACAD_REACTORS
330
3B
102
}
330
3B
100
AcDbScale
 70
     0
300
1-1/2" = 1'-0"
140
1.5
141
12.0
290
     0
  0
SCALE
  5
5A
102
{ACAD_REACTORS
330
3B
102
}
330
3B
100
AcDbScale
 70
     0
300
3" = 1'-0"
140
3.0
141
12.0
290
     0
  0
SCALE
  5
5B
102
{ACAD_REACTORS
330
3B
102
}
330
3B
100
AcDbScale
 70
     0
300
6" = 1'-0"
140
6.0
141
12.0
290
     0
  0
SCALE
  5
5C
102
{ACAD_REACTORS
330
3B
102
}
330
3B
100
AcDbScale
 70
     0
300
1'-0" = 1'-0"
140
12.0
141
12.0
290
     0
  0
VISUALSTYLE
  5
2F
102
{ACAD_REACTORS
330
2A
102
}
330
2A
100
AcDbVisualStyle
  2
2dWireframe
 70
     4
 71
     0
 72
     2
 73
     0
 90
        0
 40
-0.6
 41
-30.0
 62
     5
 63
     7
421
 16777215
 74
     1
 91
        4
 64
     7
 65
   257
 75
     1
175
     1
 42
1.0
 92
        0
 66
   257
 43
1.0
 76
     1
 77
     6
 78
     2
 67
     7
 79
     5
170
     0
171
     0
290
     0
174
     0
 93
        1
 44
0.0
173
     0
291
     0
 45
0.0
  0
VISUALSTYLE
  5
31
102
{ACAD_REACTORS
330
2A
102
}
330
2A
100
AcDbVisualStyle
  2
3D Hidden
 70
     6
 71
     1
 72
     2
 73
     2
 90
        0
 40
-0.6
 41
-30.0
 62
     5
 63
     7
421
 16777215
 74
     2
 91
        2
 64
     7
 65
   257
 75
     2
175
     1
 42
40.0
 92
        0
 66
   257
 43
1.0
 76
     1
 77
     6
 78
     2
 67
     7
 79
     3
170
     0
171
     0
290
     0
174
     0
 93
        1
 44
0.0
173
     0
291
     0
 45
0.0
  0
VISUALSTYLE
  5
30
102
{ACAD_REACTORS
330
2A
102
}
330
2A
100
AcDbVisualStyle
  2
3dWireframe
 70
     5
 71
     0
 72
     2
 73
     0
 90
        0
 40
-0.6
 41
-30.0
 62
     5
 63
     7
421
 16777215
 74
     1
 91
        4
 64
     7
 65
   257
 75
     1
175
     1
 42
1.0
 92
        0
 66
   257
 43
1.0
 76
     1
 77
     6
 78
     2
 67
     7
 79
     5
170
     0
171
     0
290
     0
174
     0
 93
        1
 44
0.0
173
     0
291
     0
 45
0.0
  0
VISUALSTYLE
  5
32
102
{ACAD_REACTORS
330
2A
102
}
330
2A
100
AcDbVisualStyle
  2
Basic
 70
     7
 71
     1
 72
     0
 73
     1
 90
        0
 40
-0.6
 41
-30.0
 62
     5
 63
     7
421
 16777215
 74
     0
 91
        4
 64
     7
 65
   257
 75
     1
175
     1
 42
1.0
 92
        8
 66
     7
 43
1.0
 76
     1
 77
     6
 78
     2
 67
     7
 79
     5
170
     0
171
     0
290
     0
174
     0
 93
        1
 44
0.0
173
     0
291
     1
 45
0.0
  0
VISUALSTYLE
  5
36
102
{ACAD_REACTORS
330
2A
102
}
330
2A
100
AcDbVisualStyle
  2
Brighten
 70
    12
 71
     2
 72
     2
 73
     0
 90
        0
 40
-0.6
 41
-30.0
 62
     5
 63
     7
421
 16777215
 74
     1
 91
        4
 64
     7
 65
   257
 75
     1
175
     1
 42
1.0
 92
        8
 66
     7
 43
1.0
 76
     1
 77
     6
 78
     2
 67
     7
 79
     5
170
     0
171
     0
290
     0
174
     0
 93
        1
 44
50.0
173
     0
291
     1
 45
0.0
  0
VISUALSTYLE
  5
3A
102
{ACAD_REACTORS
330
2A
102
}
330
2A
100
AcDbVisualStyle
  2
ColorChange
 70
    16
 71
     2
 72
     2
 73
     3
 90
        0
 40
-0.6
 41
-30.0
 62
     5
 63
     8
421
  8421504
 74
     1
 91
        4
 64
     7
 65
   257
 75
     1
175
     1
 42
1.0
 92
        8
 66
     8
424
  8421504
 43
1.0
 76
     1
 77
     6
 78
     2
 67
     7
 79
     5
170
     0
171
     0
290
     0
174
     0
 93
        1
 44
0.0
173
     0
291
     1
 45
0.0
  0
VISUALSTYLE
  5
34
102
{ACAD_REACTORS
330
2A
102
}
330
2A
100
AcDbVisualStyle
  2
Conceptual
 70
     9
 71
     3
 72
     2
 73
     0
 90
        0
 40
-0.6
 41
-30.0
 62
     5
 63
     7
421
 16777215
 74
     2
 91
        2
 64
     7
 65
   257
 75
     1
175
     1
 42
40.0
 92
        8
 66
     7
 43
1.0
 76
     1
 77
     6
 78
     2
 67
     7
 79
     3
170
     0
171
     0
290
     0
174
     0
 93
        1
 44
0.0
173
     0
291
     0
 45
0.0
  0
VISUALSTYLE
  5
35
102
{ACAD_REACTORS
330
2A
102
}
330
2A
100
AcDbVisualStyle
  2
Dim
 70
    11
 71
     2
 72
     2
 73
     0
 90
        0
 40
-0.6
 41
-30.0
 62
     5
 63
     7
421
 16777215
 74
     1
 91
        4
 64
     7
 65
   257
 75
     1
175
     1
 42
1.0
 92
        8
 66
     7
 43
1.0
 76
     1
 77
     6
 78
     2
 67
     7
 79
     5
170
     0
171
     0
290
     0
174
     0
 93
        1
 44
-50.0
173
     0
291
     1
 45
0.0
  0
VISUALSTYLE
  5
39
102
{ACAD_REACTORS
330
2A
102
}
330
2A
100
AcDbVisualStyle
  2
Facepattern
 70
    15
 71
     2
 72
     2
 73
     0
 90
        0
 40
-0.6
 41
-30.0
 62
     5
 63
     7
421
 16777215
 74
     1
 91
        4
 64
     7
 65
   257
 75
     1
175
     1
 42
1.0
 92
        8
 66
     7
 43
1.0
 76
     1
 77
     6
 78
     2
 67
     7
 79
     5
170
     0
171
     0
290
     0
174
     0
 93
        1
 44
0.0
173
     0
291
     1
 45
0.0
  0
VISUALSTYLE
  5
2B
102
{ACAD_REACTORS
330
2A
102
}
330
2A
100
AcDbVisualStyle
  2
Flat
 70
     0
 71
     2
 72
     1
 73
     1
 90
        2
 40
-0.6
 41
30.0
 62
     5
 63
     7
421
 16777215
 74
     0
 91
        4
 64
     7
 65
   257
 75
     1
175
     1
 42
1.0
 92
        8
 66
     7
 43
1.0
 76
     1
 77
     6
 78
     2
 67
     7
 79
     5
170
     0
171
     0
290
     0
174
     0
 93
       13
 44
0.0
173
     0
291
     1
 45
0.0
  0
VISUALSTYLE
  5
2C
102
{ACAD_REACTORS
330
2A
102
}
330
2A
100
AcDbVisualStyle
  2
FlatWithEdges
 70
     1
 71
     2
 72
     1
 73
     1
 90
        2
 40
-0.6
 41
30.0
 62
     5
 63
     7
421
 16777215
 74
     1
 91
        4
 64
     7
 65
   257
 75
     1
175
     1
 42
1.0
 92
        0
 66
   257
 43
1.0
 76
     1
 77
     6
 78
     2
 67
     7
 79
     5
170
     0
171
     0
290
     0
174
     0
 93
       13
 44
0.0
173
     0
291
     1
 45
0.0
  0
VISUALSTYLE
  5
2D
102
{ACAD_REACTORS
330
2A
102
}
330
2A
100
AcDbVisualStyle
  2
Gouraud
 70
     2
 71
     2
 72
     2
 73
     1
 90
        2
 40
-0.6
 41
30.0
 62
     5
 63
     7
421
 16777215
 74
     0
 91
        4
 64
     7
 65
   257
 75
     1
175
     1
 42
1.0
 92
        0
 66
     7
 43
1.0
 76
     1
 77
     6
 78
     2
 67
     7
 79
     5
170
     0
171
     0
290
     0
174
     0
 93
       13
 44
0.0
173
     0
291
     1
 45
0.0
  0
VISUALSTYLE
  5
2E
102
{ACAD_REACTORS
330
2A
102
}
330
2A
100
AcDbVisualStyle
  2
GouraudWithEdges
 70
     3
 71
     2
 72
     2
 73
     1
 90
        2
 40
-0.6
 41
30.0
 62
     5
 63
     7
421
 16777215
 74
     1
 91
        4
 64
     7
 65
   257
 75
     1
175
     1
 42
1.0
 92
        0
 66
   257
 43
1.0
 76
     1
 77
     6
 78
     2
 67
     7
 79
     5
170
     0
171
     0
290
     0
174
     0
 93
       13
 44
0.0
173
     0
291
     1
 45
0.0
  0
VISUALSTYLE
  5
38
102
{ACAD_REACTORS
330
2A
102
}
330
2A
100
AcDbVisualStyle
  2
Linepattern
 70
    14
 71
     2
 72
     2
 73
     0
 90
        0
 40
-0.6
 41
-30.0
 62
     5
 63
     7
421
 16777215
 74
     1
 91
        4
 64
     7
 65
   257
 75
     7
175
     7
 42
1.0
 92
        8
 66
     7
 43
1.0
 76
     1
 77
     6
 78
     2
 67
     7
 79
     5
170
     0
171
     0
290
     0
174
     0
 93
        1
 44
0.0
173
     0
291
     1
 45
0.0
  0
VISUALSTYLE
  5
33
102
{ACAD_REACTORS
330
2A
102
}
330
2A
100
AcDbVisualStyle
  2
Realistic
 70
     8
 71
     2
 72
     2
 73
     0
 90
        0
 40
-0.6
 41
-30.0
 62
     5
 63
     7
421
 16777215
 74
     1
 91
        0
 64
     7
 65
   257
 75
     1
175
     1
 42
1.0
 92
        8
 66
     8
424
  7895160
 43
1.0
 76
     1
 77
     6
 78
     2
 67
     7
 79
     5
170
     0
171
     0
290
     0
174
     0
 93
       13
 44
0.0
173
     0
291
     0
 45
0.0
  0
VISUALSTYLE
  5
37
102
{ACAD_REACTORS
330
2A
102
}
330
2A
100
AcDbVisualStyle
  2
Thicken
 70
    13
 71
     2
 72
     2
 73
     0
 90
        0
 40
-0.6
 41
-30.0
 62
     5
 63
     7
421
 16777215
 74
     1
 91
        4
 64
     7
 65
   257
 75
     1
175
     1
 42
1.0
 92
       12
 66
     7
 43
1.0
 76
     1
 77
     6
 78
     2
 67
     7
 79
     5
170
     0
171
     0
290
     0
174
     0
 93
        1
 44
0.0
173
     0
291
     1
 45
0.0
  0
ENDSEC
  0
EOF
